<?xml version="1.0" encoding="UTF-8"?>
<svg id="Layer_2" xmlns="http://www.w3.org/2000/svg" version="1.1" viewBox="0 0 1366 768">
  <!-- Generator: Adobe Illustrator 29.8.5, SVG Export Plug-In . SVG Version: 2.1.1 Build 2)  -->
  <defs>
    <style>
      .st0 {
        fill: none;
        stroke: #000;
        stroke-miterlimit: 10;
        stroke-width: 3px;
      }
    </style>
  </defs>
  <line class="st0" x1="108" y1="216" x2="108" y2="576"/>
  <line class="st0" x1="396" y1="576" x2="108" y2="576"/>
  <line class="st0" x1="180" y1="216" x2="108" y2="216"/>
  <line class="st0" x1="180" y1="396" x2="180" y2="216"/>
  <line class="st0" x1="684" y1="396" x2="180" y2="396"/>
  <line class="st0" x1="396" y1="468" x2="396" y2="576"/>
  <line class="st0" x1="468" y1="468" x2="396" y2="468"/>
  <line class="st0" x1="468" y1="576" x2="468" y2="468"/>
  <line class="st0" x1="756" y1="576" x2="468" y2="576"/>
  <line class="st0" x1="324" y1="396" x2="324" y2="576"/>
  <line class="st0" x1="396" y1="396" x2="396" y2="432"/>
  <g>
    <line class="st0" x1="180" y1="450" x2="252" y2="450"/>
    <line class="st0" x1="252" y1="522" x2="252" y2="450"/>
    <line class="st0" x1="180" y1="450" x2="180" y2="522"/>
    <line class="st0" x1="252" y1="522" x2="180" y2="522"/>
  </g>
  <line class="st0" x1="468" y1="396" x2="468" y2="468"/>
  <line class="st0" x1="540" y1="396" x2="540" y2="576"/>
  <line class="st0" x1="468" y1="288" x2="468" y2="360"/>
  <line class="st0" x1="540" y1="288" x2="468" y2="288"/>
  <line class="st0" x1="540" y1="360" x2="540" y2="288"/>
  <line class="st0" x1="468" y1="360" x2="540" y2="360"/>
  <line class="st0" x1="684" y1="216" x2="684" y2="576"/>
  <line class="st0" x1="756" y1="216" x2="684" y2="216"/>
  <line class="st0" x1="756" y1="432" x2="756" y2="216"/>
  <line class="st0" x1="828" y1="360" x2="756" y2="432"/>
  <line class="st0" x1="900" y1="360" x2="828" y2="360"/>
  <line class="st0" x1="792" y1="468" x2="900" y2="360"/>
  <line class="st0" x1="900" y1="576" x2="792" y2="468"/>
  <line class="st0" x1="756" y1="576" x2="756.03" y2="504"/>
  <line class="st0" x1="828.03" y1="576.03" x2="756.03" y2="504.03"/>
  <line class="st0" x1="900" y1="576" x2="828.03" y2="576.03"/>
  <line class="st0" x1="864" y1="396" x2="864" y2="540"/>
  <line class="st0" x1="1260" y1="396" x2="864" y2="396"/>
  <line class="st0" x1="1260" y1="576" x2="900" y2="576"/>
  <line class="st0" x1="1260" y1="396" x2="1260" y2="576"/>
  <line class="st0" x1="1080" y1="396" x2="1080" y2="576"/>
  <line class="st0" x1="972" y1="396" x2="972" y2="450"/>
  <line class="st0" x1="936" y1="504" x2="936" y2="576"/>
  <line class="st0" x1="1008" y1="504" x2="1008" y2="576"/>
  <line class="st0" x1="1152" y1="522" x2="1260" y2="522"/>
  <line class="st0" x1="684" y1="450" x2="594" y2="450"/>
  <line class="st0" x1="594" y1="522" x2="594" y2="450"/>
  <line class="st0" x1="684" y1="522" x2="594" y2="522"/>
  <g>
    <line class="st0" x1="1152" y1="432" x2="1152" y2="468"/>
    <line class="st0" x1="1206" y1="432" x2="1152" y2="432"/>
    <line class="st0" x1="1206" y1="468" x2="1152" y2="468"/>
    <line class="st0" x1="1206" y1="432" x2="1206" y2="468"/>
  </g>
  <rect class="st0" x="486" y="270" width="36" height="18"/>
</svg>