<svg xmlns="http://www.w3.org/2000/svg" id="Layer_2" version="1.1" viewBox="0 0 1366 768"><defs><style>.st0{fill:none;stroke:#000;stroke-miterlimit:10;stroke-width:3px}</style></defs><line x1="108" x2="108" y1="216" y2="576" class="st0"/><line x1="396" x2="108" y1="576" y2="576" class="st0"/><line x1="180" x2="108" y1="216" y2="216" class="st0"/><line x1="180" x2="180" y1="396" y2="216" class="st0"/><line x1="684" x2="180" y1="396" y2="396" class="st0"/><line x1="396" x2="396" y1="468" y2="576" class="st0"/><line x1="468" x2="396" y1="468" y2="468" class="st0"/><line x1="468" x2="468" y1="576" y2="468" class="st0"/><line x1="756" x2="468" y1="576" y2="576" class="st0"/><line x1="324" x2="324" y1="396" y2="576" class="st0"/><line x1="396" x2="396" y1="396" y2="432" class="st0"/><g><line x1="180" x2="252" y1="450" y2="450" class="st0"/><line x1="252" x2="252" y1="522" y2="450" class="st0"/><line x1="180" x2="180" y1="450" y2="522" class="st0"/><line x1="252" x2="180" y1="522" y2="522" class="st0"/></g><line x1="468" x2="468" y1="396" y2="468" class="st0"/><line x1="540" x2="540" y1="396" y2="576" class="st0"/><line x1="468" x2="468" y1="288" y2="360" class="st0"/><line x1="540" x2="468" y1="288" y2="288" class="st0"/><line x1="540" x2="540" y1="360" y2="288" class="st0"/><line x1="468" x2="540" y1="360" y2="360" class="st0"/><line x1="684" x2="684" y1="216" y2="576" class="st0"/><line x1="756" x2="684" y1="216" y2="216" class="st0"/><line x1="756" x2="756" y1="432" y2="216" class="st0"/><line x1="828" x2="756" y1="360" y2="432" class="st0"/><line x1="900" x2="828" y1="360" y2="360" class="st0"/><line x1="792" x2="900" y1="468" y2="360" class="st0"/><line x1="900" x2="792" y1="576" y2="468" class="st0"/><line x1="756" x2="756.03" y1="576" y2="504" class="st0"/><line x1="828.03" x2="756.03" y1="576.03" y2="504.03" class="st0"/><line x1="900" x2="828.03" y1="576" y2="576.03" class="st0"/><line x1="864" x2="864" y1="396" y2="540" class="st0"/><line x1="1260" x2="864" y1="396" y2="396" class="st0"/><line x1="1260" x2="900" y1="576" y2="576" class="st0"/><line x1="1260" x2="1260" y1="396" y2="576" class="st0"/><line x1="1080" x2="1080" y1="396" y2="576" class="st0"/><line x1="972" x2="972" y1="396" y2="450" class="st0"/><line x1="936" x2="936" y1="504" y2="576" class="st0"/><line x1="1008" x2="1008" y1="504" y2="576" class="st0"/><line x1="1152" x2="1260" y1="522" y2="522" class="st0"/><line x1="684" x2="594" y1="450" y2="450" class="st0"/><line x1="594" x2="594" y1="522" y2="450" class="st0"/><line x1="684" x2="594" y1="522" y2="522" class="st0"/><g><line x1="1152" x2="1152" y1="432" y2="468" class="st0"/><line x1="1206" x2="1152" y1="432" y2="432" class="st0"/><line x1="1206" x2="1152" y1="468" y2="468" class="st0"/><line x1="1206" x2="1206" y1="432" y2="468" class="st0"/></g><rect width="36" height="18" x="486" y="270" class="st0"/></svg>